<svg width="27" height="17" viewBox="0 0 27 17" fill="none" xmlns="http://www.w3.org/2000/svg">
    <path
        d="M15.2059 8.96672C16.1316 8.96672 16.5845 10.0651 15.9473 10.7159L9.89724 16.6948C9.48581 17.1014 8.82723 17.1014 8.4158 16.6948L0.308574 8.64201C-0.102858 8.23542 -0.102858 7.58458 0.308574 7.17799L7.12008 0.446616C7.6758 -0.102567 8.60152 -0.102567 9.15724 0.446616C9.71296 0.9958 9.71296 1.91063 9.15724 2.45981L4.3829 7.19775C3.97147 7.60435 3.97147 8.25518 4.3829 8.66177L8.43723 12.6684C8.84866 13.075 9.50724 13.075 9.91867 12.6684L10.4544 12.139C10.6601 11.9357 10.763 11.6915 10.763 11.4063V10.3686C10.763 10.226 10.763 10.0834 10.783 9.94226C10.8244 9.39308 11.2773 8.98648 11.833 8.98648H15.2073V8.96672H15.2059Z"
        fill="#00E7E7" />
    <path
        d="M26.7092 9.82177L19.8777 16.5729C19.3219 17.1221 18.3962 17.1221 17.8405 16.5729C17.2848 16.0237 17.2848 15.1089 17.8405 14.5597L22.6348 9.82177C23.0463 9.41518 23.0463 8.76434 22.6348 8.35775L18.5605 4.35111C18.1491 3.94452 17.4905 3.94452 17.0791 4.35111L16.5433 4.88053C16.3576 5.06406 16.2348 5.32807 16.2348 5.61325V6.6509C16.2348 6.79349 16.2348 6.93609 16.2148 7.07726C16.1733 7.62645 15.7205 8.03304 15.1647 8.03304H11.7904C10.8647 8.03304 10.4118 6.93467 11.049 6.28384L15.6376 1.7492L16.2348 1.13931L17.0791 0.304945C17.4905 -0.101648 18.1491 -0.101648 18.5605 0.304945L26.6891 8.33798C27.1006 8.76434 27.1006 9.41518 26.7092 9.82177Z"
        fill="#00BFFF" />
</svg>